<svg width="264" height="173" viewBox="0 0 264 173" xmlns="http://www.w3.org/2000/svg"><title>ic_no_search_results</title><g fill="none" fill-rule="evenodd"><path d="M202.632 21.085c-49.49 4.62-99.1 7.37-148.74 8.191-14.15.23-28.3.3-42.46.23-13.86-.07-11.52 9.96-10.88 26.51.64 16.71-3.98 34.89 10.88 34.96 49.65.26 99.3-1.37 148.85-4.92 14.13-1.01 28.24-2.18 42.35-3.49 7.13-.67 6.95-62.12 0-61.48" fill="#3E5192"/><path d="M74.112 50.106c-5.15-.01-10.31-.09-15.46-.26-3.2-.1-3.23-6.3-.08-6.3h.08c5.19.17 10.37.25 15.57.25 17.99 0 35.98-1.02 53.9-3.07a60.518 60.518 0 0 0-2.09 6.53 476.829 476.829 0 0 1-51.92 2.85" fill="#334186"/><path d="M200.712 91.005c-47.53 9.461-173.76 18.16-187.3 20.441-6.11 1.02 1.22 62.74 5.92 61.28 51.68-7.68 100.34-8.59 147.92-17.73 13.5-2.6 27.17-7.13 40.66-9.82 6.18-1.23.2-55.64-7.2-54.17" fill="#3E5192"/><path d="M60.552 128.075c-2.84 0-2.68-5.85.35-6.33 29.01-4.629 58.01-9.259 87.02-13.889a53.769 53.769 0 0 0 8.74 4.91c-31.92 5.1-63.84 10.19-95.76 15.28-.12.02-.24.03-.35.03M62.222 154.245c-3.07 0-2.99-6.089.16-6.31 27.53-1.909 54.86-6.699 81.76-14.319.21-.06.42-.09.61-.09 2.69 0 3.65 5.34.72 6.17-27.32 7.74-55.12 12.6-83.09 14.54-.05.01-.11.01-.16.01M71.212 72.075c-3.25 0-6.51-.04-9.77-.129-3.91-.1-3.94-6.3-.09-6.3h.09c3.35.08 6.7.13 10.04.13 17.61 0 35.2-1.21 52.65-3.66-.11 2.07-.05 4.17.17 6.28-17.61 2.43-35.33 3.68-53.09 3.68" fill="#334186"/><path d="M12.992 46.555v23.7s-1.11 3.57 0 4.07c1.1.51 9.29.851 10.62 1.02 1.33.17 14.66.511 16.94 0 2.29-.51 2.67-2.029 2.67-3.22 0-1.19-.76-7.4-.76-11.17 0-3.77.19-11.239-.19-13.11-.38-1.87-4.76-3.06-6.47-3.06-1.72 0-19.46-1.77-21.14 0l-1.67 1.77M21.282 125.825s1.11 12.77 1.56 18.061c.44 5.29-1.12 8.48 2 11.11 3.11 2.63 11.11 1.51 14.23 1.07 3.11-.44 10.67.14 12.67-1.82s1.56-4.41 1.11-7.3c-.44-2.89-1.78-12.22-2.44-16.23-.67-4 .66-6.31-2.89-7.71-3.56-1.4-4.07-.82-10.26 0-6.2.82-15.98 2.82-15.98 2.82" fill="#6FC8E6"/><path d="M260.602 129.066c-11.29-13.36-22.58-26.71-33.87-40.07.05-.09.08-.19.15-.27 19.14-24.34 7.1-59.08.19-68.86-12.94-18.31-39.05-23.98-59.69-16.94-26.1 8.9-43.26 33.54-43.25 59.09-.26 5.01.39 10.13 2.13 15.27 1.65 5.8 4.27 11.48 7.99 16.88 2.79 4.3 6.21 8 10.11 11.01 18.73 15.4 46.19 16.56 65.63 3.2 10.88 12.88 21.77 25.76 32.66 38.64 10.56 12.49 28.44-5.54 17.95-17.95" fill="#EC982D"/><path d="M225.342 59.616c-.5-3.78-1.01-7.57-1.52-11.35-2.03-7.24-5.69-13.52-10.98-18.85-2.88-2.22-5.76-4.45-8.65-6.68-6.66-3.86-13.84-5.8-21.55-5.83h-1.13c-5.88-.22-11.37 1.01-16.46 3.68-5.29 1.73-9.87 4.67-13.74 8.83-4.17 3.87-7.11 8.45-8.83 13.75-2.68 5.09-3.9 10.57-3.68 16.45.51 3.79 1.02 7.57 1.52 11.35 2.03 7.24 5.7 13.52 10.99 18.85a4567.8 4567.8 0 0 1 8.64 6.68c6.66 3.86 13.85 5.8 21.56 5.83h1.13c5.88.22 11.36-1.01 16.45-3.68 5.3-1.72 9.88-4.67 13.75-8.83 4.16-3.87 7.1-8.45 8.83-13.74 2.67-5.09 3.9-10.58 3.67-16.46" fill="#64C4DB"/><path d="M182.242 102.526c-12.51 0-21.35-5.47-21.72-5.71 6.5 3.65 13.49 5.48 20.99 5.51h1.13c.45.01.89.02 1.34.02 5.37 0 10.41-1.23 15.11-3.7 1.94-.63 3.79-1.43 5.54-2.39-8.03 4.72-15.73 6.27-22.39 6.27" fill="#677C38"/><path d="M183.982 102.345c-.45 0-.89-.01-1.34-.02h-1.13c-7.5-.03-14.49-1.859-20.99-5.509-.01-.01-.02-.01-.02-.01s29.77-3.72 40.21-5.8c.1-.02.2-.03.3-.03 1.39 0 2.73 1.94 3.93 5.1-.1.06-.21.12-.31.18-1.75.96-3.6 1.76-5.54 2.39-4.7 2.47-9.74 3.7-15.11 3.7" fill="#44ACD5"/><path d="M143.472 79.045c-14.76-27.679 7.38-53.179 13.05-54.2a33.451 33.451 0 0 0-5.21 4.57c-3.9 3.62-6.73 7.87-8.48 12.73-.53 1.221-1.02 2.33-1.25 2.86-2.05 4.561-2.98 9.43-2.78 14.611.51 3.79 1.02 7.57 1.52 11.35.8 2.84 1.85 5.53 3.15 8.08" fill="#348541"/><path d="M148.632 86.856c-2.08-2.61-3.78-5.22-5.16-7.81-1.3-2.55-2.35-5.24-3.15-8.08-.5-3.78-1.01-7.56-1.52-11.35-.2-5.18.73-10.05 2.78-14.61-.09.2-.14.32-.14.32s25.01-4.06 37.43-6.83c3-.66 1.96-6.13-.83-6.13-.16 0-.33.02-.5.05a473.467 473.467 0 0 1-33.18 6.17c-.4.95-.99 2.31-1.53 3.56 1.75-4.86 4.58-9.11 8.48-12.73a33.451 33.451 0 0 1 5.21-4.57c5.79-1.03 27.64-2.16 43.01-3.48h.12c1.23 0 5.07 1.22 5.81 3.73 3.99 13.57 3.15 56.91-2.83 57.47a2008.845 2008.845 0 0 1-54 4.29" fill="#41BDE1"/><path d="M141.582 45.005c.23-.53.72-1.639 1.25-2.86-.12.341-.24.68-.35 1.02a35.46 35.46 0 0 0-.9 1.84" fill="#1A743C"/><path d="M141.442 45.325s.05-.12.14-.32c.28-.619.58-1.229.9-1.84.11-.34.23-.679.35-1.02.54-1.25 1.13-2.61 1.53-3.56 11.1-1.659 22.16-3.71 33.18-6.17.17-.029.34-.049.5-.049 2.79 0 3.83 5.47.83 6.13-12.42 2.77-37.43 6.83-37.43 6.83" fill="#4B9FCC"/></g></svg>